<mxfile host="app.diagrams.net" agent="Mozilla/5.0 (Windows NT 10.0; Win64; x64) AppleWebKit/537.36 (KHTML, like Gecko) Chrome/136.0.0.0 Safari/537.36" version="27.0.9">
  <diagram name="Page-1" id="cwu7H61f02jVtp086w-F">
    <mxGraphModel dx="1042" dy="574" grid="1" gridSize="10" guides="1" tooltips="1" connect="1" arrows="1" fold="1" page="1" pageScale="1" pageWidth="850" pageHeight="1100" math="0" shadow="0">
      <root>
        <mxCell id="0" />
        <mxCell id="1" parent="0" />
        <mxCell id="9O_HjaYWdBveZDyWT0Eo-1" value="Admin" style="shape=umlActor;verticalLabelPosition=bottom;verticalAlign=top;html=1;outlineConnect=0;" vertex="1" parent="1">
          <mxGeometry x="70" y="220" width="30" height="60" as="geometry" />
        </mxCell>
        <mxCell id="9O_HjaYWdBveZDyWT0Eo-2" value="User" style="shape=umlActor;verticalLabelPosition=bottom;verticalAlign=top;html=1;outlineConnect=0;" vertex="1" parent="1">
          <mxGeometry x="425" y="220" width="30" height="60" as="geometry" />
        </mxCell>
        <mxCell id="9O_HjaYWdBveZDyWT0Eo-3" value="" style="swimlane;startSize=0;" vertex="1" parent="1">
          <mxGeometry x="170" y="160" width="200" height="230" as="geometry" />
        </mxCell>
        <mxCell id="9O_HjaYWdBveZDyWT0Eo-4" value="Manage User" style="ellipse;whiteSpace=wrap;html=1;" vertex="1" parent="9O_HjaYWdBveZDyWT0Eo-3">
          <mxGeometry x="40" y="20" width="120" height="50" as="geometry" />
        </mxCell>
        <mxCell id="9O_HjaYWdBveZDyWT0Eo-7" value="View Attendance Record" style="ellipse;whiteSpace=wrap;html=1;" vertex="1" parent="9O_HjaYWdBveZDyWT0Eo-3">
          <mxGeometry x="40" y="160" width="120" height="50" as="geometry" />
        </mxCell>
        <mxCell id="9O_HjaYWdBveZDyWT0Eo-18" value="Take Attendance" style="ellipse;whiteSpace=wrap;html=1;" vertex="1" parent="9O_HjaYWdBveZDyWT0Eo-3">
          <mxGeometry x="40" y="90" width="120" height="50" as="geometry" />
        </mxCell>
        <mxCell id="9O_HjaYWdBveZDyWT0Eo-12" style="edgeStyle=orthogonalEdgeStyle;rounded=0;orthogonalLoop=1;jettySize=auto;html=1;exitX=0.5;exitY=1;exitDx=0;exitDy=0;" edge="1" parent="1" source="9O_HjaYWdBveZDyWT0Eo-3" target="9O_HjaYWdBveZDyWT0Eo-3">
          <mxGeometry relative="1" as="geometry" />
        </mxCell>
        <mxCell id="9O_HjaYWdBveZDyWT0Eo-13" value="" style="endArrow=classic;html=1;rounded=0;entryX=0;entryY=0.5;entryDx=0;entryDy=0;" edge="1" parent="1" target="9O_HjaYWdBveZDyWT0Eo-7">
          <mxGeometry width="50" height="50" relative="1" as="geometry">
            <mxPoint x="90" y="260" as="sourcePoint" />
            <mxPoint x="140" y="210" as="targetPoint" />
          </mxGeometry>
        </mxCell>
        <mxCell id="9O_HjaYWdBveZDyWT0Eo-15" value="" style="endArrow=classic;html=1;rounded=0;entryX=0;entryY=0.5;entryDx=0;entryDy=0;" edge="1" parent="1" target="9O_HjaYWdBveZDyWT0Eo-4">
          <mxGeometry width="50" height="50" relative="1" as="geometry">
            <mxPoint x="90" y="260" as="sourcePoint" />
            <mxPoint x="140" y="210" as="targetPoint" />
          </mxGeometry>
        </mxCell>
        <mxCell id="9O_HjaYWdBveZDyWT0Eo-17" value="" style="endArrow=classic;html=1;rounded=0;entryX=1;entryY=0.5;entryDx=0;entryDy=0;" edge="1" parent="1" target="9O_HjaYWdBveZDyWT0Eo-7">
          <mxGeometry width="50" height="50" relative="1" as="geometry">
            <mxPoint x="440" y="250" as="sourcePoint" />
            <mxPoint x="560" y="295" as="targetPoint" />
          </mxGeometry>
        </mxCell>
        <mxCell id="9O_HjaYWdBveZDyWT0Eo-19" value="" style="endArrow=classic;html=1;rounded=0;entryX=1;entryY=0.5;entryDx=0;entryDy=0;" edge="1" parent="1">
          <mxGeometry width="50" height="50" relative="1" as="geometry">
            <mxPoint x="440" y="250" as="sourcePoint" />
            <mxPoint x="330" y="275" as="targetPoint" />
          </mxGeometry>
        </mxCell>
      </root>
    </mxGraphModel>
  </diagram>
</mxfile>
